<?xml version="1.0" encoding="UTF-8"?>
<svg id="Vrstva_1" xmlns="http://www.w3.org/2000/svg" version="1.1" viewBox="0 0 262.65 66.06">
  <!-- Generator: Adobe Illustrator 29.8.3, SVG Export Plug-In . SVG Version: 2.1.1 Build 3)  -->
  <defs>
    <style>
      .st0 {
        fill: #00af9c;
      }

      .st1 {
        fill: none;
        stroke: #00af9b;
        stroke-width: 4px;
      }
    </style>
  </defs>
  <g>
    <path class="st0" d="M28.24,30.72c0-5.9,3.71-9.83,9.26-9.83s9.26,3.93,9.26,9.83-3.69,9.83-9.26,9.83-9.26-3.93-9.26-9.83ZM37.5,36.65c2.79,0,4.53-2.29,4.53-5.93s-1.75-5.93-4.53-5.93-4.53,2.27-4.53,5.93,1.75,5.93,4.53,5.93Z"/>
    <path class="st0" d="M53.43,25.26v1.91c1.07-1.39,2.68-2.19,4.64-2.19,3.25,0,5.22,2.19,5.22,5.71v9.59h-4.26v-9.07c0-1.61-.87-2.54-2.29-2.54-1.83,0-3.03,1.42-3.03,3.66v7.95h-4.26v-15.02h3.99-.01Z"/>
    <path class="st0" d="M74.96,24.99c3.9,0,6.5,3.14,6.5,7.79s-2.73,7.78-6.85,7.78c-1.88,0-3.47-.79-4.53-2.19v1.91h-3.69v-20.21h4.26v6.8c1.07-1.2,2.54-1.89,4.32-1.89h0ZM73.68,36.98c2.05,0,3.3-1.58,3.3-4.21s-1.26-4.23-3.3-4.23-3.28,1.61-3.28,4.23,1.26,4.21,3.28,4.21Z"/>
    <path class="st0" d="M83.28,32.77c0-4.67,3.11-7.79,7.78-7.79s7.78,3.12,7.78,7.79-3.11,7.78-7.78,7.78-7.78-3.11-7.78-7.78ZM91.06,36.98c2.05,0,3.3-1.58,3.3-4.21s-1.26-4.23-3.3-4.23-3.3,1.61-3.3,4.23,1.26,4.21,3.3,4.21Z"/>
    <path class="st0" d="M107.34,28.26c-1.45,0-2.49.71-2.98,2.19l-3.82-.82c1.07-2.92,3.55-4.64,6.99-4.64,3.93,0,6.2,1.94,6.2,5.55v4.91c0,1.28.16,2.79.52,4.83h-3.96c-.08-.55-.16-1.07-.22-1.56-1.07,1.15-2.62,1.83-4.53,1.83-3.06,0-5.19-1.77-5.19-4.4,0-2.43,1.83-3.99,4.92-4.53l4.45-.76v-.22c0-1.53-.96-2.38-2.38-2.38h0ZM106.5,37.5c1.77,0,3.22-1.26,3.22-2.87v-.74l-3.44.6c-1.15.19-1.67.71-1.67,1.53,0,.9.71,1.47,1.88,1.47h0Z"/>
    <path class="st0" d="M116.97,40.28v-15.02h3.99v2.38c1.07-2.16,3.09-3.28,6.01-2.24l-.85,4.1c-2.38-1.17-4.89-.66-4.89,2.51v8.27h-4.26,0Z"/>
    <path class="st0" d="M138.28,40.28v-1.97c-1.09,1.42-2.68,2.24-4.62,2.24-3.88,0-6.47-3.11-6.47-7.78s2.73-7.79,6.83-7.79c1.61,0,2.95.57,3.99,1.61v-6.53h4.26v20.21h-3.99ZM134.94,36.98c2.05,0,3.28-1.58,3.28-4.21s-1.23-4.23-3.28-4.23-3.28,1.61-3.28,4.23,1.23,4.21,3.28,4.21Z"/>
    <path class="st0" d="M145.5,20.07h4.26v3.66h-4.26v-3.66ZM145.5,40.28v-15.02h4.26v15.02h-4.26Z"/>
    <path class="st0" d="M156.97,25.26v1.91c1.07-1.39,2.68-2.19,4.64-2.19,3.25,0,5.22,2.19,5.22,5.71v9.59h-4.26v-9.07c0-1.61-.87-2.54-2.29-2.54-1.83,0-3.03,1.42-3.03,3.66v7.95h-4.26v-15.02h3.99,0Z"/>
    <path class="st0" d="M169.84,42.39l3.96-1.48c.55,1.37,1.61,2.02,2.95,2.02,1.99,0,3.28-1.23,3.28-3.11v-1.26c-1.07,1.2-2.57,1.89-4.34,1.89-3.88,0-6.47-3.11-6.47-7.67s2.73-7.79,6.83-7.79c1.91,0,3.47.79,4.56,2.19v-1.91h3.69v14.31c0,3.93-2.98,6.44-7.65,6.44-3.09,0-5.52-1.2-6.8-3.63h-.01ZM176.97,36.98c2.05,0,3.28-1.58,3.28-4.21s-1.23-4.23-3.28-4.23-3.28,1.61-3.28,4.23,1.23,4.21,3.28,4.21Z"/>
  </g>
  <path class="st0" d="M217.52,33.62c0-6.47,3.11-10.24,8.52-10.24,3.19,0,5.84,1.53,6.96,4.48l-4.4,1.18c-.44-1.42-1.48-2.21-2.81-2.21-2.18,0-3.58,1.77-3.82,5.41,1.17-1.34,2.95-2.1,5.11-2.1,3.69,0,6.12,2.46,6.12,6.09,0,4.04-3.06,6.83-7.62,6.83-5.16,0-8.06-3.5-8.06-9.42v-.02ZM225.58,39.6c1.86,0,3.14-1.23,3.14-3s-1.26-3.03-3.11-3.03-3.17,1.26-3.17,3.03,1.28,3,3.14,3h0Z"/>
  <path class="st1" d="M14.73,10.04v29.71c0,8.36,6.78,15.14,15.14,15.14h172.94V10.04H14.73Z"/>
  <path class="st1" d="M203,10.04v44.85h30.32c8.36,0,15.14-6.78,15.14-15.14V10.04h-45.46Z"/>
</svg>